<svg id="visual" viewBox="0 0 960 540" width="960" height="540" xmlns="http://www.w3.org/2000/svg" xmlns:xlink="http://www.w3.org/1999/xlink" version="1.1"><rect x="0" y="0" width="960" height="540" fill="#131B23"></rect><path d="M0 408L12.3 410.7C24.7 413.3 49.3 418.7 74 416.2C98.7 413.7 123.3 403.3 148 400.3C172.7 397.3 197.3 401.7 221.8 404.8C246.3 408 270.7 410 295.2 411.8C319.7 413.7 344.3 415.3 369 411C393.7 406.7 418.3 396.3 443 396.2C467.7 396 492.3 406 517 409.8C541.7 413.7 566.3 411.3 591 410.2C615.7 409 640.3 409 664.8 405C689.3 401 713.7 393 738.2 389C762.7 385 787.3 385 812 389.5C836.7 394 861.3 403 886 405.7C910.7 408.3 935.3 404.7 947.7 402.8L960 401L960 541L947.7 541C935.3 541 910.7 541 886 541C861.3 541 836.7 541 812 541C787.3 541 762.7 541 738.2 541C713.7 541 689.3 541 664.8 541C640.3 541 615.7 541 591 541C566.3 541 541.7 541 517 541C492.3 541 467.7 541 443 541C418.3 541 393.7 541 369 541C344.3 541 319.7 541 295.2 541C270.7 541 246.3 541 221.8 541C197.3 541 172.7 541 148 541C123.3 541 98.7 541 74 541C49.3 541 24.7 541 12.3 541L0 541Z" fill="#35FF69" stroke-linecap="round" stroke-linejoin="miter"></path></svg>