<svg id="visual" viewBox="0 0 960 540" width="960" height="540" xmlns="http://www.w3.org/2000/svg" xmlns:xlink="http://www.w3.org/1999/xlink" version="1.1"><rect x="0" y="0" width="960" height="540" fill="#131B23"></rect><path d="M0 104L12.3 101.8C24.7 99.7 49.3 95.3 74 97.3C98.7 99.3 123.3 107.7 148 110.2C172.7 112.7 197.3 109.3 221.8 106.8C246.3 104.3 270.7 102.7 295.2 101.2C319.7 99.7 344.3 98.3 369 101.8C393.7 105.3 418.3 113.7 443 113.8C467.7 114 492.3 106 517 102.8C541.7 99.7 566.3 101.3 591 102.2C615.7 103 640.3 103 664.8 106.2C689.3 109.3 713.7 115.7 738.2 118.8C762.7 122 787.3 122 812 118.5C836.7 115 861.3 108 886 106C910.7 104 935.3 107 947.7 108.5L960 110L960 0L947.7 0C935.3 0 910.7 0 886 0C861.3 0 836.7 0 812 0C787.3 0 762.7 0 738.2 0C713.7 0 689.3 0 664.8 0C640.3 0 615.7 0 591 0C566.3 0 541.7 0 517 0C492.3 0 467.7 0 443 0C418.3 0 393.7 0 369 0C344.3 0 319.7 0 295.2 0C270.7 0 246.3 0 221.8 0C197.3 0 172.7 0 148 0C123.3 0 98.7 0 74 0C49.3 0 24.7 0 12.3 0L0 0Z" fill="#35FF69" stroke-linecap="round" stroke-linejoin="miter"></path></svg>